<?xml version='1.0' encoding='iso-8859-1'?>
<!DOCTYPE svg PUBLIC '-//W3C//DTD SVG 1.1//EN' 'http://www.w3.org/Graphics/SVG/1.1/DTD/svg11.dtd'>
<svg version="1.1" xmlns="http://www.w3.org/2000/svg" width="66.432" height="37.5" viewBox="0 0 502.008 502.008" xmlns:xlink="http://www.w3.org/1999/xlink" enable-background="new 0 0 502.008 502.008">
  <path d="m330.025,47.008h-141.188c0-7-4.32-12.712-10.724-14.849l-94.124-31.358c-4.796-1.585-10.209-0.795-14.3,2.169-4.098,2.949-6.685,7.691-6.685,12.732v94.125c0,5.04 2.587,9.774 6.685,12.723 2.704,1.953 6.004,2.964 9.252,2.964 1.67,0 3.381-0.268 5.005-0.804l94.146-31.597c6.404-2.137 10.745-8.105 10.745-15.105h15.167v58.251c-37,17.67-63,55.372-63,99.068v251c0,8.663 7.795,15.681 16.458,15.681h188.25c8.663,0 15.292-7.018 15.292-15.681v-251c0-43.696-25-81.398-63-99.068v-58.251h32.021c43.248,0 77.979,35.633 77.979,78.881v62.75c0,8.663 6.837,15.688 15.5,15.688 8.663,0 15.5-7.024 15.5-15.688v-62.75c5.68434e-14-60.551-48.427-109.881-108.979-109.881zm-173.021,20.138l-63,20.919v-50.601l63,20.919v8.763zm173,168.181v235.681h-157v-235.681c0-43.248 35.252-78.438 78.5-78.438s78.5,35.19 78.5,78.438zm-63-108.56c-5-0.741-10.16-1.252-15.5-1.252-5.34,0-10.5,0.511-15.5,1.252v-48.759h31v48.759z"/>
</svg>
